<svg width="32" height="32" viewBox="0 0 32 32" fill="none" xmlns="http://www.w3.org/2000/svg">
<path d="M27.75 29.0498V31.75H4.25V29.0498H27.75ZM2.98145 28.25C3.0186 28.4014 3.08801 28.5435 3.1875 28.665L3.25781 28.7422C3.39453 28.8789 3.56531 28.9722 3.75 29.0176V31.7402C2.90857 31.684 2.1095 31.347 1.4834 30.7803L1.34863 30.6514C0.704553 30.0073 0.320102 29.1532 0.259766 28.25H2.98145ZM31.7402 28.25C31.684 29.0914 31.347 29.8905 30.7803 30.5166L30.6514 30.6514C30.0073 31.2954 29.1532 31.6799 28.25 31.7402V29.0176C28.4013 28.9804 28.5436 28.9119 28.665 28.8125L28.7422 28.7422C28.879 28.6054 28.9732 28.4348 29.0186 28.25H31.7402ZM31.75 16.25V27.75H29.0498V16.25H31.75ZM2.9502 4.25V27.75H0.25V4.25H2.9502ZM30.4004 14.6504C30.7582 14.6505 31.1014 14.792 31.3545 15.0449C31.5479 15.2383 31.6756 15.485 31.7256 15.75H29.0742C29.1242 15.485 29.2519 15.2383 29.4453 15.0449C29.6985 14.7919 30.0424 14.6504 30.4004 14.6504ZM3.75 2.98145C3.59863 3.0186 3.4565 3.08801 3.33496 3.1875L3.25781 3.25781C3.12104 3.39458 3.0268 3.56522 2.98145 3.75H0.259766C0.315973 2.90857 0.65296 2.1095 1.21973 1.4834L1.34863 1.34863C1.99273 0.704537 2.84675 0.319111 3.75 0.258789V2.98145ZM15.75 0.25V2.9502H4.25V0.25H15.75ZM16.25 0.273438C16.5151 0.323391 16.7616 0.452074 16.9551 0.645508C17.208 0.898562 17.3495 1.24185 17.3496 1.59961C17.3496 1.95756 17.2081 2.30153 16.9551 2.55469C16.7617 2.74809 16.515 2.87581 16.25 2.92578V0.273438Z" fill="#727070" stroke="#727070" stroke-width="0.5"/>
<path d="M1.59998 24.8001L10.1544 16.9585C10.4427 16.6942 10.8178 16.5447 11.2089 16.5383C11.6 16.5318 11.9798 16.6687 12.2768 16.9233L22.4 25.6001M19.2 21.6001L23.0184 17.7817C23.2907 17.5092 23.6523 17.3441 24.0366 17.3167C24.4209 17.2894 24.8022 17.4017 25.1104 17.6329L30.4 21.6001M20.8 6.4001H30.4H20.8ZM25.6 1.6001V11.2001V1.6001Z" fill="#727070"/>
<path d="M1.59998 24.8001L10.1544 16.9585C10.4427 16.6942 10.8178 16.5447 11.2089 16.5383C11.6 16.5318 11.9798 16.6687 12.2768 16.9233L22.4 25.6001M19.2 21.6001L23.0184 17.7817C23.2907 17.5092 23.6523 17.3441 24.0366 17.3167C24.4209 17.2894 24.8022 17.4017 25.1104 17.6329L30.4 21.6001M20.8 6.4001H30.4M25.6 1.6001V11.2001" stroke="#727070" stroke-width="2" stroke-linecap="round" stroke-linejoin="round"/>
</svg>
