<svg width="40" height="40" viewBox="0 0 40 40" fill="none" xmlns="http://www.w3.org/2000/svg">
<path d="M26.514 0H13.506C9.92697 0.00633983 6.49626 1.4305 3.96494 3.9607C1.43362 6.4909 0.00793016 9.92098 0 13.5V26.5C0.00038044 28.7661 0.572864 30.9953 1.66438 32.9812C2.7559 34.967 4.33111 36.6452 6.244 37.86C6.9115 38.3032 7.62172 38.6784 8.364 38.98C9.98791 39.6526 11.7283 39.9992 13.486 40H26.494C28.294 40 30.076 39.64 31.734 38.94C32.5272 38.6027 33.285 38.1873 33.996 37.7C35.8414 36.4764 37.3554 34.8152 38.403 32.8645C39.4506 30.9138 39.9992 28.7342 40 26.52V13.52C40 9.94016 38.5803 6.50643 36.0521 3.97192C33.524 1.4374 30.0938 0.00900257 26.514 0ZM20.01 9.16C20.9386 9.16066 21.8554 9.36703 22.6947 9.76427C23.534 10.1615 24.2749 10.7397 24.864 11.4574C25.4532 12.1751 25.8761 13.0144 26.1022 13.915C26.3284 14.8156 26.3522 15.7551 26.172 16.666C25.9909 17.5771 25.6098 18.4367 25.0564 19.1828C24.503 19.9289 23.791 20.5429 22.9716 20.9806C22.1523 21.4183 21.246 21.6688 20.3182 21.714C19.3903 21.7592 18.464 21.598 17.606 21.242C16.4579 20.7672 15.4764 19.9625 14.7857 18.9297C14.0951 17.8969 13.7263 16.6824 13.726 15.44C13.7313 13.7754 14.3952 12.1805 15.5726 11.0038C16.7501 9.82709 18.3454 9.16422 20.01 9.16ZM30.014 36.42C28.9228 36.8088 27.7724 37.0051 26.614 37H13.606C11.121 36.9938 8.71844 36.1082 6.824 34.5C7.76087 32.4608 9.20737 30.6975 11.024 29.38C13.5877 27.2837 16.7974 26.1385 20.109 26.1385C23.4206 26.1385 26.6303 27.2837 29.194 29.38C31.016 30.6857 32.4926 32.4155 33.496 34.42C32.45 35.32 31.84 35.816 30.524 36.234L30.014 36.42Z" fill="#6C90FE"/>
</svg>
